<svg width="84" height="24" viewBox="0 0 84 24" fill="none" xmlns="http://www.w3.org/2000/svg">
<path fill-rule="evenodd" clip-rule="evenodd" d="M23.2961 8.53334C23.7974 8.53334 24.2134 8.70401 24.5441 9.03467C24.8748 9.37601 25.0348 9.78134 25.0348 10.2613V18.432C25.0348 18.912 24.8748 19.328 24.5441 19.6587C24.2134 19.9893 23.7974 20.16 23.2961 20.16C22.5601 20.16 22.0161 19.808 21.6748 19.0933C20.9494 19.9467 19.9468 20.3733 18.6881 20.3733C17.1734 20.3733 15.9041 19.7973 14.8694 18.624C13.8348 17.4507 13.3228 16.032 13.3228 14.3467C13.3228 12.6613 13.8348 11.2427 14.8694 10.0693C15.8934 8.90667 17.1734 8.32001 18.6881 8.32001C19.9468 8.32001 20.9494 8.74667 21.6748 9.60001C22.0161 8.88534 22.5494 8.53334 23.2961 8.53334ZM19.1788 17.1947C19.9254 17.1947 20.5014 16.9173 20.9281 16.3733C21.3441 15.8293 21.5574 15.1573 21.5681 14.3467C21.5681 13.536 21.3547 12.864 20.9281 12.32C20.5014 11.776 19.9254 11.4987 19.1788 11.4987C18.4321 11.4987 17.8561 11.776 17.4294 12.32C17.0028 12.864 16.7894 13.5467 16.7894 14.3467C16.7894 15.1467 17.0028 15.8293 17.4294 16.3733C17.8561 16.9173 18.4321 17.1947 19.1788 17.1947Z" fill="#0068FF"/>
<path d="M28.9705 19.6587C28.6399 19.9893 28.2239 20.16 27.7225 20.16C27.2212 20.16 26.8052 19.9893 26.4746 19.6587C26.1439 19.328 25.9839 18.912 25.9839 18.432V3.81867C25.9839 3.33867 26.1439 2.92267 26.4746 2.592C26.8052 2.26133 27.2212 2.09067 27.7225 2.09067C28.2239 2.09067 28.6399 2.26133 28.9705 2.592C29.3012 2.92267 29.4612 3.33867 29.4612 3.81867V18.4427C29.4612 18.9227 29.2905 19.328 28.9705 19.6587Z" fill="#0068FF"/>
<path fill-rule="evenodd" clip-rule="evenodd" d="M36.2241 8.32001C37.9521 8.32001 39.3707 8.89601 40.4801 10.0693C41.5574 11.2107 42.0907 12.64 42.0801 14.3467C42.0801 16.0533 41.5467 17.4827 40.4801 18.624C39.3707 19.7867 37.9521 20.3733 36.2241 20.3733C34.4961 20.3733 33.0881 19.7973 32.0001 18.6453C30.9014 17.4933 30.3574 16.0533 30.3574 14.3467C30.3574 12.64 30.9121 11.2 32.0001 10.048C33.0988 8.89601 34.4961 8.32001 36.2241 8.32001ZM36.2241 17.1947C36.9707 17.1947 37.5467 16.9173 37.9734 16.3733C38.4001 15.8293 38.6134 15.1573 38.6027 14.3467C38.6027 13.536 38.4001 12.864 37.9734 12.32C37.5467 11.776 36.9707 11.4987 36.2241 11.4987C35.4774 11.4987 34.9014 11.776 34.4747 12.32C34.0481 12.864 33.8347 13.5467 33.8347 14.3467C33.8347 15.1467 34.0481 15.8293 34.4747 16.3733C34.9014 16.9173 35.4774 17.1947 36.2241 17.1947Z" fill="#0068FF"/>
<path d="M11.3919 8.72533C12.6186 7.136 13.2372 6.06933 13.2372 5.52533C13.2372 4.256 12.4372 3.616 10.8372 3.616H2.39989C1.73856 3.616 1.22656 3.776 0.863889 4.08533C0.501222 4.39466 0.319889 4.81066 0.319889 5.312C0.319889 5.81333 0.501222 6.21866 0.863889 6.53866C1.22656 6.848 1.73856 7.008 2.39989 7.008H8.19189L0.778556 16.5973C0.298556 17.2267 0.0532227 17.7813 0.0532227 18.2613C0.0532227 19.6587 0.970556 20.352 2.81589 20.352H11.5199C12.9066 20.352 13.5999 19.7653 13.5999 18.6027C13.5999 17.44 12.9066 16.8533 11.5199 16.8533H5.11989L11.3919 8.72533Z" fill="#0068FF"/>
<path d="M53.2374 6.96533H50.9121V11.808H53.2374C53.9414 11.808 54.5067 11.584 54.9334 11.1253C55.3707 10.6667 55.5841 10.0907 55.5841 9.38667C55.5841 8.68267 55.3707 8.10667 54.9334 7.648C54.5067 7.2 53.9307 6.96533 53.2374 6.96533Z" fill="#03CA77"/>
<path d="M64.8533 11.52C64.1173 11.52 63.5307 11.7867 63.1147 12.3307C62.6987 12.8747 62.4854 13.5467 62.4854 14.3467C62.4854 15.1467 62.6987 15.8187 63.1147 16.3627C63.5307 16.9067 64.1173 17.1734 64.8533 17.1734C65.5893 17.1734 66.176 16.9067 66.592 16.3627C67.008 15.8187 67.2213 15.1467 67.2213 14.3467C67.2213 13.5467 67.008 12.8747 66.592 12.3307C66.176 11.7867 65.5893 11.52 64.8533 11.52Z" fill="#03CA77"/>
<path fill-rule="evenodd" clip-rule="evenodd" d="M81.3012 0.0533447H47.5412C46.4106 0.0533447 45.5039 0.970678 45.5039 2.09068V21.8667C45.5039 22.9973 46.4212 23.904 47.5412 23.904H74.1866C73.9092 23.6373 73.7599 23.328 73.7599 22.9653C73.7599 22.6773 73.8239 22.368 73.9519 22.048L75.2106 19.2533L71.7332 10.5707C71.6266 10.3253 71.5839 10.0587 71.5839 9.76001C71.5839 9.37601 71.7439 9.05601 72.0639 8.80001C72.3839 8.53334 72.7146 8.40534 73.0666 8.40534C73.8346 8.40534 74.3679 8.77868 74.6452 9.52534L76.8106 15.4453L79.1252 9.52534C79.4132 8.77868 79.9359 8.40534 80.7039 8.40534C81.0559 8.40534 81.3866 8.53334 81.7066 8.80001C82.0266 9.06668 82.1866 9.38668 82.1866 9.76001C82.1866 10.048 82.1332 10.3253 82.0372 10.5707L76.8852 23.072C76.7466 23.424 76.5759 23.7013 76.3732 23.8933H81.2906C82.4212 23.8933 83.3279 22.976 83.3279 21.856V2.09068C83.3386 0.960011 82.4319 0.0533447 81.3012 0.0533447ZM57.4612 13.3653C56.3946 14.336 55.0612 14.8267 53.4399 14.8267H50.9013V18.56C50.9013 19.1253 50.7413 19.5627 50.4213 19.872C50.1013 20.1813 49.6959 20.3413 49.1839 20.3413C48.6826 20.3413 48.2666 20.1813 47.9466 19.872C47.6266 19.5627 47.4666 19.1253 47.4666 18.56V5.73867C47.4666 4.55467 48.0639 3.95734 49.2479 3.95734H53.2906C54.9759 3.95734 56.3732 4.45867 57.4826 5.47201C58.5812 6.48534 59.1359 7.79734 59.1359 9.408C59.1466 11.04 58.5812 12.352 57.4612 13.3653ZM70.1866 19.6373C70.5172 19.296 70.6772 18.8907 70.6772 18.4107V10.304C70.6772 9.81335 70.5066 9.40802 70.1866 9.07735C69.8666 8.74668 69.4506 8.57602 68.9492 8.57602C68.2026 8.57602 67.6692 8.93868 67.3279 9.64268C66.6026 8.78935 65.6212 8.36268 64.3626 8.36268C62.8586 8.36268 61.5892 8.93868 60.5652 10.1013C59.5412 11.264 59.0292 12.6827 59.0292 14.3573C59.0292 16.032 59.5412 17.4507 60.5652 18.6133C61.5892 19.776 62.8586 20.352 64.3626 20.352C65.6106 20.352 66.6026 19.9253 67.3279 19.072C67.6692 19.7867 68.2132 20.1387 68.9492 20.1387C69.4506 20.1387 69.8559 19.968 70.1866 19.6373Z" fill="#03CA77"/>
</svg>
